<svg width="27" height="27" viewBox="0 0 27 27" fill="none" xmlns="http://www.w3.org/2000/svg">
<path d="M13.5 0C6.04487 0 0 6.04487 0 13.5C0 20.9551 6.04487 27 13.5 27C20.9551 27 27 20.9551 27 13.5C27 6.04487 20.9551 0 13.5 0ZM7.93426 19.2375C7.874 19.2646 7.80167 19.2375 7.77455 19.1742C7.7625 19.1441 7.7625 19.1079 7.77455 19.0778L10.7488 12.2826L14.7295 16.2633L7.93426 19.2375ZM19.2375 7.93426L16.2633 14.7295L12.2826 10.7488L19.0778 7.77455C19.1381 7.74743 19.2104 7.77455 19.2375 7.83784C19.2496 7.86797 19.2496 7.90112 19.2375 7.93426Z" fill="black"/>
</svg>
