<svg width="31" height="27" viewBox="0 0 31 27" fill="none" xmlns="http://www.w3.org/2000/svg">
<g clip-path="url(#clip0_51_19419)">
<path d="M7.17736 13.9544C7.17736 13.9818 7.17736 14.0093 7.17736 14.0343L8.29748 12.9205C8.45352 12.7651 8.63896 12.6416 8.84322 12.5571C9.04748 12.4726 9.26655 12.4287 9.48793 12.428C9.7093 12.4273 9.92865 12.4698 10.1334 12.553C10.3382 12.6362 10.5245 12.7586 10.6815 12.913C10.8385 13.0675 10.9633 13.2511 11.0487 13.4532C11.134 13.6554 11.1783 13.8723 11.179 14.0914C11.1797 14.3106 11.1368 14.5277 11.0528 14.7304C10.9687 14.9331 10.8451 15.1175 10.6891 15.2729L6.84687 19.1062C6.53687 19.4139 6.11791 19.5899 5.67893 19.5969C5.23995 19.6039 4.81549 19.4413 4.49564 19.1436L0.575227 15.7324C0.278938 15.4314 0.108356 15.0307 0.0975885 14.6106C0.0868208 14.1905 0.236661 13.7818 0.517149 13.4663C0.797637 13.1508 1.1881 12.9517 1.61047 12.9088C2.03283 12.866 2.45597 12.9825 2.79528 13.2352L3.80439 14.1192C3.67634 11.3966 4.37962 8.69903 5.82262 6.3778C7.25426 4.07629 9.36876 2.26839 11.8773 1.20105C12.7718 0.821492 13.7011 0.527965 14.6524 0.324524C17.6986 -0.354839 20.8892 0.0513159 23.6626 1.47149C26.4361 2.89165 28.6145 5.23479 29.8143 8.0884C30.1975 8.97302 30.4907 9.89321 30.6897 10.8353C31.1741 13.0688 31.0602 15.3889 30.3592 17.5654C29.6473 19.7319 28.3841 21.6807 26.6911 23.2241C25.0744 24.7346 23.1264 25.8542 20.9997 26.4954C19.2909 27.0022 17.4908 27.1332 15.7254 26.8791C13.9601 26.625 12.2722 25.9921 10.7799 25.0246C10.4049 24.7838 10.1418 24.4055 10.0486 23.9727C9.95542 23.54 10.0397 23.0884 10.2829 22.7171C10.5261 22.3459 10.9083 22.0855 11.3455 21.9933C11.7827 21.901 12.2389 21.9844 12.614 22.2252C13.0554 22.5157 13.5223 22.7665 14.0091 22.9744C14.4737 23.1705 14.9549 23.326 15.4471 23.4388C16.9657 23.7919 18.5512 23.7454 20.0461 23.304C21.6772 22.8056 23.1694 21.9397 24.4055 20.7743C25.6814 19.6142 26.6315 18.1463 27.1629 16.514C27.6882 14.8931 27.7752 13.1642 27.4152 11.4996C27.2591 10.7722 27.0327 10.0614 26.739 9.37697C25.8454 7.23738 24.2144 5.48068 22.1359 4.41903C20.0574 3.35738 17.6659 3.05953 15.3865 3.57841C14.649 3.73361 13.929 3.96115 13.2371 4.25765C11.3586 5.04645 9.77431 6.39388 8.70365 8.11337C7.61288 9.86407 7.08096 11.8997 7.17736 13.9544ZM15.3461 8.49045C15.3461 8.08578 15.5085 7.69769 15.7976 7.41154C16.0867 7.1254 16.4788 6.96465 16.8876 6.96465C17.2964 6.96465 17.6884 7.1254 17.9775 7.41154C18.2666 7.69769 18.429 8.08578 18.429 8.49045V13.2352L22.1854 15.3004C22.542 15.4971 22.8051 15.826 22.9168 16.2147C23.0284 16.6034 22.9795 17.0201 22.7808 17.3731C22.5821 17.7261 22.2498 17.9865 21.8571 18.097C21.4645 18.2075 21.0435 18.1591 20.6869 17.9624L16.2543 15.5226C15.9837 15.4019 15.7541 15.2065 15.593 14.9598C15.4319 14.713 15.3462 14.4255 15.3461 14.1317V8.49045Z" fill="#3D3D3D"/>
</g>
<defs>
<clipPath id="clip0_51_19419">
<rect width="31" height="27" fill="white"/>
</clipPath>
</defs>
</svg>
