<svg width="30" height="30" viewBox="0 0 30 30" fill="none" xmlns="http://www.w3.org/2000/svg">
<path d="M13.7311 30C15.9949 30 17.8887 28.3862 18.3236 26.25H9.13855C9.57365 28.3862 11.4674 30 13.7311 30Z" fill="#3D3D3D"/>
<path d="M25.6951 23.1649L25.6952 23.1646C25.8247 22.5402 25.6047 21.9191 25.1174 21.5093C23.3093 19.9937 22.2187 17.8147 22.0236 15.4888C17.1354 15.2496 13.231 11.1976 13.231 6.25C13.231 5.10463 13.4461 4.01101 13.8298 3.0007C13.7969 3.00024 13.764 3 13.731 3C9.1748 3 5.48112 6.69346 5.48112 11.2499V14.7349C5.48112 17.3558 4.33256 19.83 2.31996 21.532C1.83229 21.9491 1.61467 22.6128 1.7911 23.2655L25.6951 23.1649ZM25.6951 23.1649C25.5353 23.937 24.7704 24.5 23.8998 24.5H3.55611C2.72625 24.5 1.98726 23.9895 1.79115 23.2657L25.6951 23.1649Z" fill="#3D3D3D" stroke="#3D3D3D"/>
<path d="M28.6364 6.13648C28.6364 9.5255 25.8892 12.2727 22.4999 12.2727C19.1109 12.2727 16.3636 9.5255 16.3636 6.13648C16.3636 2.74745 19.1109 0 22.4999 0C25.8892 0 28.6364 2.74745 28.6364 6.13648Z" fill="#E42C64"/>
</svg>
