<svg width="24" height="24" viewBox="0 0 24 24" fill="none" xmlns="http://www.w3.org/2000/svg">
<path d="M11.9544 12.3724C14.8027 12.3724 17.1117 10.1116 17.1117 7.32281C17.1117 4.53399 14.8027 2.27319 11.9544 2.27319C9.10606 2.27319 6.79706 4.53399 6.79706 7.32281C6.79706 10.1116 9.10606 12.3724 11.9544 12.3724Z" fill="black"/>
<path d="M21.4184 21.6134C22.0749 21.6134 22.6121 21.3339 22.611 20.9838C22.6052 19.0773 21.7438 13.5013 11.8544 13.5652C1.96843 13.6291 1.2545 19.1171 1.29956 20.993C1.30788 21.3394 1.84215 21.6134 2.49188 21.6134H21.4184Z" fill="black"/>
<path d="M14.0611 3.37237C15.3753 4.95534 16.568 7.30928 15.5235 9.33035C14.4792 11.351 11.877 11.4029 9.89832 11.2311C9.28632 11.178 9.28993 12.1247 9.89832 12.1776C12.2722 12.3837 15.2523 12.115 16.4104 9.68256C17.5662 7.25515 16.3196 4.61035 14.7363 2.70313C14.3455 2.23248 13.6734 2.9054 14.0611 3.37237Z" fill="black"/>
<path d="M19.9429 21.6658C20.4342 21.6853 20.9463 21.7059 21.4256 21.5763C21.8727 21.4554 22.4718 21.0854 22.2912 20.5365C22.2762 20.4828 22.2508 20.4326 22.2162 20.3886C22.1817 20.3447 22.1388 20.3079 22.0899 20.2804C22.0411 20.2529 21.9872 20.2352 21.9314 20.2283C21.8757 20.2215 21.8191 20.2255 21.7649 20.2404C21.7107 20.2552 21.66 20.2804 21.6157 20.3146C21.5714 20.3488 21.5343 20.3914 21.5065 20.4398C21.4788 20.4883 21.4609 20.5417 21.454 20.5969C21.4471 20.6522 21.4512 20.7083 21.4661 20.762C21.4841 20.8167 21.4637 20.7131 21.4638 20.7059C21.4628 20.7634 21.4752 20.6526 21.4759 20.6491C21.4731 20.6616 21.4696 20.6739 21.4653 20.6859C21.4682 20.6772 21.511 20.5904 21.4807 20.6386C21.4881 20.6268 21.5483 20.5664 21.507 20.605C21.4956 20.6156 21.4838 20.6272 21.4732 20.6385C21.4359 20.6785 21.4821 20.6274 21.5001 20.6203C21.4842 20.6292 21.4691 20.6394 21.4548 20.6507C21.4218 20.6715 21.3872 20.6888 21.3527 20.7069C21.2899 20.7398 21.3685 20.6985 21.3696 20.7017C21.3699 20.7024 21.3139 20.7226 21.3092 20.7243C21.2186 20.7553 21.1255 20.779 21.031 20.7954C21.0082 20.7995 20.9853 20.8026 20.9625 20.8067C20.8995 20.8181 21.0364 20.7995 20.9721 20.8055C20.9251 20.8099 20.8782 20.8154 20.831 20.8189C20.7353 20.826 20.6393 20.8295 20.5433 20.8307C20.3431 20.8332 20.1429 20.8256 19.9429 20.8177C19.8297 20.8185 19.7214 20.8635 19.6414 20.9428C19.5613 21.0221 19.516 21.1295 19.5151 21.2417C19.5174 21.3535 19.5632 21.46 19.643 21.5391C19.7227 21.6181 19.8302 21.6635 19.9429 21.6658V21.6658Z" fill="black"/>
<path d="M21.4183 21.2368C21.8506 21.2454 22.3653 21.0288 22.2211 20.863C22.2132 20.3625 22.1458 19.8646 22.0205 19.3797C21.7859 18.4044 21.3114 17.5017 20.6395 16.7522C19.2808 15.2458 17.2389 14.4946 15.2025 14.1422C13.1242 13.8277 11.011 13.8125 8.92831 14.0971C6.8715 14.3754 4.79689 15.0717 3.34642 16.514C2.62436 17.2321 2.10181 18.1231 1.82945 19.1003C1.69982 19.5899 1.6232 20.0918 1.60089 20.5975L1.5992 20.9761C1.59998 21.0047 1.61115 21.0344 1.67816 21.0919C1.84961 21.211 2.05037 21.2819 2.25917 21.2972L8.62027 21.2867L21.4183 21.2368ZM21.4183 21.99L8.62027 21.9401C6.47099 21.9233 4.39067 21.9424 2.18477 21.896C1.85901 21.8665 1.54843 21.7458 1.28921 21.548C1.20327 21.481 1.13294 21.3964 1.08302 21.3C1.03311 21.2036 1.00479 21.0976 1 20.9893L1.0052 20.5751C1.03342 20.0241 1.12132 19.4776 1.26739 18.9452C1.57915 17.8795 2.15013 16.9059 2.9302 16.1101C4.50807 14.5203 6.70968 13.7837 8.83493 13.4766C10.9827 13.1653 13.1646 13.1644 15.3126 13.4738C17.4367 13.8262 19.6461 14.593 21.1858 16.2669C21.9445 17.1002 22.4839 18.1062 22.7562 19.1957C22.8997 19.7348 22.9789 20.2888 22.9923 20.8462C23.018 20.9182 22.9843 21.313 22.8191 21.4662C22.6934 21.6129 22.5353 21.7291 22.3571 21.8055C22.0607 21.9315 21.7408 21.9944 21.4183 21.99V21.99Z" fill="black"/>
<path d="M17.4666 7.32276C17.4755 8.03971 17.338 8.75104 17.0625 9.414C16.787 10.077 16.3792 10.6779 15.8634 11.1806C14.8197 12.182 13.4214 12.7378 11.9688 12.7284C10.5162 12.719 9.12533 12.1453 8.09486 11.1305C7.58848 10.6347 7.18722 10.0436 6.91467 9.39187C6.64212 8.74016 6.50379 8.041 6.50781 7.33552C6.51182 6.63003 6.65811 5.93247 6.93806 5.28384C7.21801 4.63522 7.62598 4.04863 8.13797 3.55857C9.16055 2.56564 10.5331 2.00662 11.9646 2.00006C13.396 1.9935 14.7737 2.53993 15.8055 3.52344C16.3232 4.01554 16.7367 4.60499 17.0219 5.25734C17.3071 5.90968 17.4583 6.61184 17.4666 7.32276ZM16.7566 7.32276C16.7632 6.69922 16.6442 6.08064 16.4066 5.50323C16.1691 4.92582 15.8177 4.40116 15.3732 3.95995C14.4619 3.06054 13.2302 2.55268 11.9442 2.5461C10.6582 2.53953 9.4213 3.03478 8.50069 3.92482C8.04895 4.36697 7.69106 4.89427 7.44811 5.47565C7.20516 6.05704 7.08207 6.68075 7.08609 7.31002C7.09011 7.9393 7.22115 8.56141 7.4715 9.13971C7.72186 9.718 8.08645 10.2408 8.5438 10.6772C9.45641 11.5454 10.675 12.026 11.9398 12.0166C13.2047 12.0073 14.4158 11.5087 15.3153 10.6271C16.2169 9.75739 16.735 8.5696 16.7566 7.32276Z" fill="black"/>
</svg>
