<svg width="25" height="23" viewBox="0 0 25 23" fill="none" xmlns="http://www.w3.org/2000/svg">
<path d="M24.4826 11.3116L13.1237 0.251884C13.042 0.172037 12.9448 0.10869 12.8379 0.0654689C12.7309 0.0222474 12.6163 0 12.5005 0C12.3847 0 12.2701 0.0222474 12.1632 0.0654689C12.0562 0.10869 11.9591 0.172037 11.8773 0.251884L0.518442 11.3116C0.187522 11.634 0 12.072 0 12.5288C0 13.4773 0.791451 14.2485 1.76491 14.2485H2.96174V22.1402C2.96174 22.6158 3.35608 23 3.84419 23H10.7356V16.9811H13.8242V23H21.1568C21.645 23 22.0393 22.6158 22.0393 22.1402V14.2485H23.2361C23.7049 14.2485 24.1544 14.0684 24.4853 13.7433C25.172 13.0715 25.172 11.9833 24.4826 11.3116Z" fill="black"/>
</svg>
